<?xml version="1.0" encoding="UTF-8"?>
<svg width="100px" height="88px" viewBox="0 0 100 88" version="1.1" xmlns="http://www.w3.org/2000/svg" xmlns:xlink="http://www.w3.org/1999/xlink">
    <!-- Generator: sketchtool 63.1 (101010) - https://sketch.com -->
    <title>4AC7B61B-3179-43AF-A23E-5E61EC1E9A7B</title>
    <desc>Created with sketchtool.</desc>
    <g id="web" stroke="none" stroke-width="1" fill="none" fill-rule="evenodd">
        <g id="contact1" transform="translate(-744.000000, -474.000000)" fill-rule="nonzero">
            <g id="Group-4" transform="translate(746.000000, 476.000000)">
                <path d="M80.3715821,83.8967286 L71.7780761,78.1347656 C58.6794433,80.5458984 45.1083984,75.5690917 38.3737792,66.2834473 C35.5891114,62.3693848 34.125,57.9338379 34.125,53.4375 C34.125,39.4797364 48.0036621,28.125 65.0625,28.125 C71.6462402,28.125 77.9575196,29.7978516 83.3137207,32.9589844 C91.2619629,37.7160645 96,45.3706054 96,53.4375 C96,60.9799804 91.8251953,68.1811522 84.75,72.9770509 L84.75,81.5625 C84.75,83.8286134 82.2165527,85.1411134 80.3715821,83.8967286 L80.3715821,83.8967286 Z" id="Path" stroke="#000000" stroke-width="3" stroke-linecap="round" stroke-linejoin="round"></path>
                <path d="M83.8952636,26.9758301 C79.9643554,11.6008301 62.9267578,1.63424829e-13 42.5625,1.63424829e-13 C19.2993165,1.63424829e-13 5.68434189e-14,15.1391603 5.68434189e-14,33.75 C5.68434189e-14,42.385254 4.35717769,50.4982911 11.625,56.7304688 L11.625,70.3125 C11.625,72.572754 14.145996,73.8867188 15.9975585,72.6525879 L27.1816406,65.1958009 C28.697754,65.6660156 30.2644043,65.9736328 31.8251953,66.2995605" id="Path" stroke="#000000" stroke-width="3" stroke-linecap="round" stroke-linejoin="round"></path>
                <path d="M52.4854459,47.9708922 L76.5135085,47.9708922 C77.3336699,47.9708922 77.9989544,47.3056077 77.9989544,46.4854461 C77.9989544,45.6652845 77.3336699,45 76.5135085,45 L52.4854459,45 C51.6652845,45 51,45.6652845 51,46.4854461 C51,47.3056077 51.6652845,47.9708922 52.4854459,47.9708922 Z" id="Path" fill="#000000"></path>
                <path d="M76.5142714,52.2693014 L73.274824,52.2693014 C72.4546626,52.2693014 71.790141,52.9338231 71.790141,53.7539847 C71.790141,54.5749091 72.4546626,55.2394306 73.274824,55.2394306 L76.5142714,55.2394306 C77.334433,55.2394306 77.9989544,54.5749091 77.9989544,53.7539847 C77.9989544,52.9338231 77.334433,52.2693014 76.5142714,52.2693014 Z" id="Path" fill="#000000"></path>
                <path d="M52.4854459,55.2394306 L68.3241002,55.2394306 C69.1442618,55.2394306 69.8087834,54.5749091 69.8087834,53.7539847 C69.8087834,52.9338231 69.1442618,52.2693014 68.3241002,52.2693014 L52.4854459,52.2693014 C51.6652845,52.2693014 51,52.9338231 51,53.7539847 C51,54.5749091 51.6652845,55.2394306 52.4854459,55.2394306 Z" id="Path" fill="#000000"></path>
                <path d="M52.4854459,62.508732 L76.5135085,62.508732 C77.3336699,62.508732 77.9989544,61.8434475 77.9989544,61.0232861 C77.9989544,60.2031245 77.3336699,59.53784 76.5135085,59.53784 L52.4854459,59.53784 C51.6652845,59.53784 51,60.2031245 51,61.0232861 C51,61.8434475 51.6652845,62.508732 52.4854459,62.508732 Z" id="Path" fill="#000000"></path>
            </g>
        </g>
    </g>
</svg>