<?xml version="1.0" encoding="UTF-8"?>
<svg width="17px" height="12px" viewBox="0 0 17 12" version="1.1" xmlns="http://www.w3.org/2000/svg" xmlns:xlink="http://www.w3.org/1999/xlink">
    <title>BBEF3638-BA12-4A82-A996-81878D10765A@1x</title>
    <g id="designs" stroke="none" stroke-width="1" fill="none" fill-rule="evenodd" stroke-linecap="round" stroke-linejoin="round">
        <g id="collection5" transform="translate(-14.000000, -132.000000)" stroke="#000000" stroke-width="1.4">
            <g id="filters" transform="translate(15.000000, 133.000000)">
                <path d="M12.2727273,2.14285714 C12.2727273,3.32642857 11.3570455,4.28571429 10.2272727,4.28571429 C9.0975,4.28571429 8.18181818,3.32642857 8.18181818,2.14285714 C8.18181818,0.959285714 9.0975,0 10.2272727,0 C11.3570455,0 12.2727273,0.959285714 12.2727273,2.14285714 Z" id="Stroke-1"></path>
                <line x1="15" y1="2.14285714" x2="12.2727273" y2="2.14285714" id="Stroke-3"></line>
                <line x1="8.18181818" y1="2.14285714" x2="0" y2="2.14285714" id="Stroke-5"></line>
                <path d="M8.18181818,7.85714286 C8.18181818,9.04071429 7.26613636,10 6.13636364,10 C5.00659091,10 4.09090909,9.04071429 4.09090909,7.85714286 C4.09090909,6.67357143 5.00659091,5.71428571 6.13636364,5.71428571 C7.26613636,5.71428571 8.18181818,6.67357143 8.18181818,7.85714286 Z" id="Stroke-7"></path>
                <line x1="15" y1="7.85714286" x2="8.18181818" y2="7.85714286" id="Stroke-9"></line>
                <line x1="4.09090909" y1="7.85714286" x2="0" y2="7.85714286" id="Stroke-11"></line>
            </g>
        </g>
    </g>
</svg>