<?xml version="1.0" encoding="UTF-8"?>
<svg width="100px" height="76px" viewBox="0 0 100 76" version="1.1" xmlns="http://www.w3.org/2000/svg" xmlns:xlink="http://www.w3.org/1999/xlink">
    <!-- Generator: sketchtool 63.1 (101010) - https://sketch.com -->
    <title>C406D44A-D921-40FC-A111-26FF95D5E8A7</title>
    <desc>Created with sketchtool.</desc>
    <g id="web" stroke="none" stroke-width="1" fill="none" fill-rule="evenodd">
        <g id="contact1" transform="translate(-333.000000, -476.000000)" fill="#000000" fill-rule="nonzero">
            <g id="icon-help-center" transform="translate(333.000000, 476.000000)">
                <path d="M23.1873016,72.6731781 L5.86167543,72.6731781 C4.26712873,72.6731781 2.9701291,71.3761783 2.9701291,69.7823947 L2.9701291,14.5920089 C2.9701291,13.7718473 2.30560767,13.1065628 1.48544609,13.1065628 C0.665284516,13.1065628 2.78098918e-15,13.7718473 2.78098918e-15,14.5920089 L2.78098918e-15,69.7823947 C2.78098918e-15,73.0142126 2.62985753,75.6433072 5.86167543,75.6433072 L23.1873016,75.6433072 C24.0074632,75.6433072 24.6727477,74.9787856 24.6727477,74.158624 C24.6727477,73.3384626 24.0074632,72.6731781 23.1873016,72.6731781 Z" id="Path"></path>
                <path d="M98.5147512,13.1065628 C97.6945896,13.1065628 97.0300682,13.7718473 97.0300682,14.5920089 L97.0300682,69.7823947 C97.0300682,71.3761783 95.7323056,72.6731781 94.1369961,72.6731781 L28.1380254,72.6731781 C27.317864,72.6731781 26.6533424,73.3384626 26.6533424,74.158624 C26.6533424,74.9787856 27.317864,75.6433072 28.1380254,75.6433072 L94.1369961,75.6433072 C97.3695768,75.6433072 100.000197,73.0142126 100.000197,69.7823947 L100.000197,14.5920089 C100.000197,13.7718473 99.3349128,13.1065628 98.5147512,13.1065628 Z" id="Path"></path>
                <path d="M11.1290198,70.2973799 L88.8696517,70.2973799 C92.1258837,70.2973799 94.7748147,67.6484489 94.7748147,64.3922169 L94.7748147,5.90516302 C94.7748147,2.64893101 92.1258837,4.44958269e-14 88.8696517,4.44958269e-14 L59.3728283,4.44958269e-14 C55.3803583,4.44958269e-14 51.8868516,2.16751521 50.0008615,5.38636316 C48.1141086,2.16751521 44.6206019,4.44958269e-14 40.6281319,4.44958269e-14 L11.1290198,4.44958269e-14 C7.8727878,4.44958269e-14 5.22385679,2.64893101 5.22385679,5.90516302 L5.22385679,64.3922169 C5.22385679,67.647686 7.8727878,70.2973799 11.1290198,70.2973799 Z M8.19398589,64.3922169 L8.19398589,63.5918919 C9.05916084,64.0900922 10.0609025,64.3761952 11.1290198,64.3761952 L40.6281319,64.3761952 C43.0794612,64.3761952 45.31793,65.4855112 46.7865913,67.3264879 L11.1290198,67.3264879 C9.51082189,67.3264879 8.19398589,66.0104146 8.19398589,64.3922169 L8.19398589,64.3922169 Z M88.8696517,67.3264879 L53.2136059,67.3264879 C54.6830301,65.4862741 56.9207361,64.3761952 59.3728283,64.3761952 L88.8696517,64.3761952 C89.937769,64.3761952 90.9387476,64.0900922 91.8039225,63.5926547 L91.8039225,64.3922169 C91.8039225,66.0104146 90.4878494,67.3264879 88.8696517,67.3264879 L88.8696517,67.3264879 Z M59.3728283,2.9701291 L88.8696517,2.9701291 C90.4878494,2.9701291 91.8046854,4.28696529 91.8046854,5.90516302 L91.8046854,11.8240589 L91.8039225,11.8240589 L91.8039225,58.4809503 C91.8001078,60.0945705 90.4855605,61.4060661 88.8696517,61.4060661 L59.3728283,61.4060661 C56.3119091,61.4060661 53.4920793,62.6626297 51.4855447,64.7866573 L51.4855447,10.8574128 C51.4855447,6.50864936 55.0240648,2.9701291 59.3728283,2.9701291 Z M8.19398589,5.90516302 C8.19398589,4.28696529 9.51082189,2.9701291 11.1290198,2.9701291 L40.6281319,2.9701291 C44.9768954,2.9701291 48.5146525,6.50864936 48.5146525,10.8574128 L48.5146525,64.7866573 C46.5088808,62.6626297 43.689051,61.4060661 40.6281319,61.4060661 L11.1290198,61.4060661 C9.51082189,61.4060661 8.19398589,60.0899928 8.19398589,58.4733208 L8.19398589,5.90516302 Z" id="Shape"></path>
                <path d="M15.8638313,14.4127177 L39.8918939,14.4127177 C40.7120553,14.4127177 41.3773398,13.7474332 41.3773398,12.9272716 C41.3773398,12.10711 40.7120553,11.4418255 39.8918939,11.4418255 L15.8638313,11.4418255 C15.0436699,11.4418255 14.3783854,12.10711 14.3783854,12.9272716 C14.3783854,13.7474332 15.0436699,14.4127177 15.8638313,14.4127177 Z" id="Path"></path>
                <path d="M39.8926568,18.7111269 L36.6532094,18.7111269 C35.833048,18.7111269 35.1685264,19.3756486 35.1685264,20.1958102 C35.1685264,21.0167346 35.833048,21.6812561 36.6532094,21.6812561 L39.8926568,21.6812561 C40.7128184,21.6812561 41.3773398,21.0167346 41.3773398,20.1958102 C41.3773398,19.3756486 40.7128184,18.7111269 39.8926568,18.7111269 Z" id="Path"></path>
                <path d="M15.8638313,21.6812561 L31.7024856,21.6812561 C32.5226472,21.6812561 33.1871688,21.0167346 33.1871688,20.1958102 C33.1871688,19.3756486 32.5226472,18.7111269 31.7024856,18.7111269 L15.8638313,18.7111269 C15.0436699,18.7111269 14.3783854,19.3756486 14.3783854,20.1958102 C14.3783854,21.0167346 15.0436699,21.6812561 15.8638313,21.6812561 Z" id="Path"></path>
                <path d="M15.8638313,36.2190961 L39.8918939,36.2190961 C40.7120553,36.2190961 41.3773398,35.5545744 41.3773398,34.7336502 C41.3773398,33.9134886 40.7120553,33.248967 39.8918939,33.248967 L15.8638313,33.248967 C15.0436699,33.248967 14.3783854,33.9134886 14.3783854,34.7336502 C14.3783854,35.5545744 15.0436699,36.2190961 15.8638313,36.2190961 Z" id="Path"></path>
                <path d="M15.8638313,50.7569361 L39.8918939,50.7569361 C40.7120553,50.7569361 41.3773398,50.0924144 41.3773398,49.2722531 C41.3773398,48.4513284 40.7120553,47.786807 39.8918939,47.786807 L15.8638313,47.786807 C15.0436699,47.786807 14.3783854,48.4513284 14.3783854,49.2722531 C14.3783854,50.0924144 15.0436699,50.7569361 15.8638313,50.7569361 Z" id="Path"></path>
                <path d="M15.8638313,28.9505575 L39.8918939,28.9505575 C40.7120553,28.9505575 41.3773398,28.285273 41.3773398,27.4651116 C41.3773398,26.64495 40.7120553,25.9796655 39.8918939,25.9796655 L15.8638313,25.9796655 C15.0436699,25.9796655 14.3783854,26.64495 14.3783854,27.4651116 C14.3783854,28.285273 15.0436699,28.9505575 15.8638313,28.9505575 Z" id="Path"></path>
                <path d="M15.8638313,43.4883975 L39.8918939,43.4883975 C40.7120553,43.4883975 41.3773398,42.823113 41.3773398,42.0029516 C41.3773398,41.18279 40.7120553,40.5175055 39.8918939,40.5175055 L15.8638313,40.5175055 C15.0436699,40.5175055 14.3783854,41.18279 14.3783854,42.0029516 C14.3783854,42.823113 15.0436699,43.4883975 15.8638313,43.4883975 Z" id="Path"></path>
                <g id="Group" transform="translate(64.970646, 16.732089)">
                    <path d="M8.4148728,-1.46771037 C13.8728728,-1.46771037 18.297456,2.95687282 18.297456,8.4148728 C18.297456,13.8728728 13.8728728,18.297456 8.4148728,18.297456 C7.60427874,18.297456 6.94716243,17.6403397 6.94716243,16.8297456 C6.94716243,16.0350455 7.57876212,15.3878635 8.36737161,15.3627893 L8.4148728,15.3620352 C12.2516847,15.3620352 15.3620352,12.2516847 15.3620352,8.4148728 C15.3620352,4.57806094 12.2516847,1.46771037 8.4148728,1.46771037 C4.57806094,1.46771037 1.46771037,4.57806094 1.46771037,8.4148728 C1.46771037,9.22546685 0.810594056,9.88258317 2.22044605e-16,9.88258317 C-0.810594056,9.88258317 -1.46771037,9.22546685 -1.46771037,8.4148728 C-1.46771037,2.95687282 2.95687282,-1.46771037 8.4148728,-1.46771037 Z" id="Path"></path>
                    <path d="M8.4148728,15.3620352 C9.22546685,15.3620352 9.88258317,16.0191515 9.88258317,16.8297456 C9.88258317,17.6244457 9.25098348,18.2716277 8.46237398,18.2967018 L8.4148728,18.297456 C7.94241226,18.297456 7.55685145,18.6695179 7.53520509,19.1366271 L7.53424658,19.1780822 L7.53424658,21.6670529 C7.53424658,22.477647 6.87713026,23.1347633 6.0665362,23.1347633 C5.27183615,23.1347633 4.62465411,22.5031636 4.59957995,21.7145541 L4.59882583,21.6670529 L4.59882583,19.1780822 C4.59882583,17.0705376 6.30732825,15.3620352 8.4148728,15.3620352 Z" id="Path"></path>
                    <path d="M6.16438356,25.9295499 C4.11087862,25.9295499 2.44618395,27.5942446 2.44618395,29.6477495 C2.44618395,31.7012545 4.11087862,33.3659491 6.16438356,33.3659491 C8.2178885,33.3659491 9.88258317,31.7012545 9.88258317,29.6477495 C9.88258317,27.5942446 8.2178885,25.9295499 6.16438356,25.9295499 Z M6.16438356,28.8649706 C6.59670039,28.8649706 6.94716243,29.2154327 6.94716243,29.6477495 C6.94716243,30.0800663 6.59670039,30.4305284 6.16438356,30.4305284 C5.73206673,30.4305284 5.3816047,30.0800663 5.3816047,29.6477495 C5.3816047,29.2154327 5.73206673,28.8649706 6.16438356,28.8649706 Z" id="Oval"></path>
                </g>
            </g>
        </g>
    </g>
</svg>