<?xml version="1.0" encoding="UTF-8"?>
<svg width="13px" height="17px" viewBox="0 0 13 17" version="1.1" xmlns="http://www.w3.org/2000/svg" xmlns:xlink="http://www.w3.org/1999/xlink">
    <!-- Generator: sketchtool 63.1 (101010) - https://sketch.com -->
    <title>B1C065FE-DF0D-4F66-B5C1-8F4C34BE6EB8</title>
    <desc>Created with sketchtool.</desc>
    <g id="web" stroke="none" stroke-width="1" fill="none" fill-rule="evenodd">
        <g id="tile-variations" transform="translate(-240.000000, -1845.000000)" fill="#000000" fill-rule="nonzero">
            <path d="M250.135593,1858.37333 L250.135593,1861.50602 C250.135593,1861.67362 250.053975,1861.82985 249.918866,1861.92082 C249.84094,1861.97326 249.751328,1861.99995 249.66133,1861.99995 C249.59522,1861.99995 249.528917,1861.98557 249.466789,1861.95644 L249.466789,1861.95644 L246.5,1860.56579 L243.533211,1861.95647 C243.386447,1862.02527 243.216244,1862.01186 243.081134,1861.92085 C242.945993,1861.82985 242.864407,1861.67366 242.864407,1861.50602 L242.864407,1861.50602 L242.864407,1858.37333 C243.939792,1859.00463 245.180114,1859.36548 246.5,1859.36548 C247.819886,1859.36548 249.060208,1859.00459 250.135593,1858.37333 L250.135593,1858.37333 Z M246.499952,1845 C250.084061,1845 253,1847.99962 253,1851.68663 C253,1853.98886 251.862895,1856.0227 250.136335,1857.226 L250.031603,1857.29759 L249.967745,1857.33969 L249.914354,1857.37401 L249.850657,1857.41436 L249.850657,1857.41436 C249.821965,1857.43215 249.793047,1857.44968 249.764064,1857.46707 L249.724198,1857.49075 L249.655043,1857.53099 L249.53157,1857.60002 L249.438787,1857.6498 L249.386997,1857.6766 L249.386997,1857.6766 L249.268951,1857.7353 C249.246312,1857.74633 249.223642,1857.7573 249.200874,1857.76806 L249.138498,1857.79702 L249.039753,1857.84137 L249.009881,1857.85449 L248.891183,1857.90445 L248.891183,1857.90445 L248.839143,1857.92512 C248.812415,1857.93579 248.785623,1857.94632 248.758734,1857.95662 L248.69961,1857.97885 L248.620681,1858.00751 L248.565196,1858.02719 C248.52314,1858.04169 248.480955,1858.05587 248.438544,1858.06956 L248.395618,1858.08297 C248.364124,1858.09288 248.332598,1858.10258 248.300878,1858.11202 L248.245973,1858.12799 L248.131469,1858.15972 L248.038774,1858.18383 L247.955486,1858.20405 L247.939469,1858.2077 C247.902855,1858.21624 247.866144,1858.22453 247.829304,1858.23241 L247.778457,1858.24301 L247.729505,1858.2529 L247.632965,1858.27133 L247.56243,1858.28384 L247.471405,1858.29853 L247.345655,1858.31669 L247.345655,1858.31669 L247.245662,1858.32922 L247.14748,1858.34014 L247.074183,1858.3473 L246.995951,1858.35395 L246.991233,1858.35429 C246.944797,1858.3579 246.8982,1858.36084 246.851507,1858.36343 L246.805972,1858.36568 L246.750926,1858.36809 L246.650885,1858.37135 C246.600713,1858.37254 246.550445,1858.37333 246.499984,1858.37333 L246.424437,1858.37277 L246.326622,1858.37073 L246.248993,1858.36807 L246.148461,1858.36343 L246.078489,1858.35923 L245.999299,1858.35362 C245.950222,1858.34971 245.901274,1858.34514 245.852488,1858.34014 L245.754306,1858.3292 L245.654313,1858.31669 L245.591341,1858.30792 L245.508339,1858.29552 C245.461034,1858.288 245.413954,1858.27985 245.367002,1858.27133 L245.270463,1858.2529 L245.221511,1858.24301 L245.170663,1858.23241 L245.115484,1858.2203 L245.028522,1858.20038 L244.961202,1858.18384 L244.868543,1858.15975 L244.798422,1858.14054 L244.754027,1858.12799 C244.735704,1858.12276 244.717381,1858.11746 244.699122,1858.11202 L244.651667,1858.09767 L244.561456,1858.06956 C244.519013,1858.05591 244.47686,1858.04169 244.434804,1858.02719 L244.379319,1858.00751 L244.30039,1857.97885 L244.241266,1857.95662 L244.108817,1857.90445 L244.049335,1857.87977 L243.960247,1857.84137 L243.861502,1857.79702 L243.799126,1857.76806 L243.731049,1857.7353 C243.709023,1857.72457 243.686932,1857.7139 243.665034,1857.70293 C243.630223,1857.68551 243.595638,1857.66782 243.561213,1857.6498 L243.468406,1857.60002 L243.344957,1857.53099 L243.315862,1857.51414 C243.289134,1857.4986 243.262438,1857.483 243.235936,1857.46707 C243.206953,1857.44968 243.178035,1857.43222 243.149343,1857.41436 L243.058902,1857.35691 L242.968397,1857.29759 L242.916164,1857.26221 C241.160193,1856.06376 240,1854.01211 240,1851.68663 C240,1847.99962 242.915842,1845 246.499952,1845 Z M246.5,1846.7 L245.36644,1850.33829 L241.652542,1850.32305 L244.665953,1852.55624 L243.504143,1856.18522 L246.5,1853.9272 L249.495857,1856.18522 L248.334047,1852.55624 L251.347458,1850.32305 L247.63356,1850.33829 L246.5,1846.7 Z" id="icon-best-seller"></path>
        </g>
    </g>
</svg>