<?xml version="1.0" encoding="UTF-8"?>
<svg width="33px" height="34px" viewBox="0 0 33 34" version="1.1" xmlns="http://www.w3.org/2000/svg" xmlns:xlink="http://www.w3.org/1999/xlink">
    <!-- Generator: sketchtool 63.1 (101010) - https://sketch.com -->
    <title>6B6598AB-BA1C-40DB-A3F6-7FF1EB2F4EBB</title>
    <desc>Created with sketchtool.</desc>
    <g id="web" stroke="none" stroke-width="1" fill="none" fill-rule="evenodd" stroke-linejoin="round">
        <g id="home-v2" transform="translate(-977.000000, -1086.000000)">
            <g id="icon-best-price-guarantee" transform="translate(977.000000, 1086.000000)">
                <path d="M19.4293427,8.51825531 C18.5161435,8.18300445 17.5294432,8 16.5,8 C11.8055796,8 8,11.8055796 8,16.5 C8,21.1944204 11.8055796,25 16.5,25 C21.1944204,25 25,21.1944204 25,16.5 C25,14.3305444 24.1872473,12.3509173 22.849617,10.8489938" id="Path" stroke="#000000" stroke-linecap="round"></path>
                <polyline id="Path-16" stroke="#000000" stroke-linecap="round" points="12.3326436 16.0240939 15.6002048 19.1111905 22.849617 10.8489938"></polyline>
                <polygon id="Stroke-2" stroke="#231F20" transform="translate(16.552706, 16.750000) rotate(3.000000) translate(-16.552706, -16.750000) " points="31.532625 21.7433062 28.153696 23.3620489 28.4819847 27.0954598 24.7398427 27.2997672 23.613533 30.8725262 20.0791908 29.62922 17.6729044 32.5 14.8824504 29.9994179 11.5594003 31.7299185 9.94065759 28.3509895 6.20724665 28.6792782 6.00293931 24.9371362 2.42843407 23.8108265 3.67348646 20.2764843 0.802706483 17.8684517 3.30328856 15.0797439 1.57278797 11.7566938 4.95171696 10.1379511 4.62342825 6.40454016 8.36557028 6.20023283 9.49013372 2.62572759 13.0262222 3.87077998 15.4342548 1 18.2229626 3.50058207 21.5460127 1.77008149 23.1647554 5.14901048 26.8981663 4.82072177 27.1024737 8.5628638 30.6769789 9.68742724 29.4319265 13.2235157 32.3027065 15.6315483 29.8021244 18.4202561"></polygon>
            </g>
        </g>
    </g>
</svg>