<?xml version="1.0" encoding="UTF-8"?>
<svg width="14px" height="14px" viewBox="0 0 14 14" version="1.1" xmlns="http://www.w3.org/2000/svg" xmlns:xlink="http://www.w3.org/1999/xlink">
    <!-- Generator: sketchtool 63.1 (101010) - https://sketch.com -->
    <title>53B72E1A-67FE-4213-AFE5-72CFA735FA6F</title>
    <desc>Created with sketchtool.</desc>
    <g id="web" stroke="none" stroke-width="1" fill="none" fill-rule="evenodd" opacity="0.5">
        <g id="product1" transform="translate(-1365.000000, -466.000000)" fill="#6F7F84" fill-rule="nonzero">
            <g id="icon-helper" transform="translate(1365.000000, 466.000000)">
                <path d="M7,0 C10.8659932,0 14,3.13400675 14,7 C14,10.8659932 10.8659932,14 7,14 C3.13400675,14 0,10.8659932 0,7 C0,3.13400675 3.13400675,0 7,0 Z M7,1 C3.6862915,1 1,3.6862915 1,7 C1,10.3137085 3.6862915,13 7,13 C10.3137085,13 13,10.3137085 13,7 C13,3.6862915 10.3137085,1 7,1 Z" id="Oval"></path>
                <path d="M7.286,8.542 L7.286,8.317 C7.295,7.966 7.628,7.66 8.159,7.264 C8.24,7.192 8.321,7.138 8.393,7.075 C8.96,6.616 9.176,6.139 9.176,5.5 C9.176,4.375 8.276,3.475 7.151,3.475 C6.035,3.475 5.117,4.375 5.117,5.5 L5.846,5.5 C5.846,4.789 6.44,4.195 7.151,4.195 C7.862,4.195 8.456,4.735 8.456,5.5 C8.456,5.905 8.258,6.256 7.871,6.571 L7.691,6.715 C7.034,7.228 6.566,7.669 6.566,8.29 L6.566,8.542 L7.286,8.542 Z M6.962,10.126 C7.277,10.126 7.529,9.856 7.529,9.559 C7.529,9.244 7.277,8.983 6.962,8.983 C6.638,8.983 6.386,9.244 6.386,9.559 C6.386,9.874 6.638,10.126 6.962,10.126 Z" id="?"></path>
            </g>
        </g>
    </g>
</svg>