<?xml version="1.0" encoding="UTF-8"?>
<svg width="17px" height="17px" viewBox="0 0 17 17" version="1.1" xmlns="http://www.w3.org/2000/svg" xmlns:xlink="http://www.w3.org/1999/xlink">
    <!-- Generator: sketchtool 63.1 (101010) - https://sketch.com -->
    <title>FAF1AFAC-7466-4DA1-8110-879F3D80B9B9</title>
    <desc>Created with sketchtool.</desc>
    <g id="web" stroke="none" stroke-width="1" fill="none" fill-rule="evenodd">
        <g id="tile-variations" transform="translate(-241.000000, -1767.000000)" fill="#FFFFFF" fill-rule="nonzero">
            <path d="M243.675043,1777.74768 C244.887621,1777.23689 246.199177,1777.58605 246.991138,1778.37801 C248.213378,1779.60022 248.093482,1781.66522 247.05781,1782.63037 C246.003843,1783.59824 244.051998,1784 242.45184,1784 C242.234426,1784 242.02332,1783.9927 241.821977,1783.97809 L241.821977,1783.97809 L241,1783.91925 L241.43433,1783.2189 C241.659514,1782.85555 241.887619,1781.80258 241.887619,1780.49325 C241.899307,1779.3075 242.601121,1778.23212 243.675043,1777.74768 Z M247.491808,1775.12161 C248.073593,1775.39866 248.622806,1775.78046 249.110261,1776.26815 C249.6104,1776.75458 249.99529,1777.33142 250.261214,1777.9392 C249.737468,1778.44316 249.216046,1778.92673 248.697646,1779.39632 C248.516656,1778.74726 248.174265,1778.1521 247.695908,1777.67474 C247.218214,1777.19571 246.645029,1776.86747 246.022039,1776.69212 C246.498072,1776.16768 246.98805,1775.64138 247.491808,1775.12161 Z M253.8094,1768.99451 C256.791837,1766.6745 257.405165,1766.84912 257.778202,1767.22169 C258.152235,1767.59569 258.322932,1768.20998 256.004923,1771.19053 C254.624569,1772.9653 253.015413,1775.2093 251.084984,1777.13973 L251.084984,1777.13973 L251.029468,1777.19525 L251.03146,1777.1986 L251.017648,1777.21215 C250.711913,1776.61028 250.308828,1776.04436 249.809685,1775.55903 C249.325982,1775.07503 248.786464,1774.68283 248.215835,1774.37428 L248.215835,1774.37428 L248.227025,1774.36302 L248.228552,1774.36392 L248.267898,1774.32457 C250.19929,1772.39318 252.035091,1770.37483 253.8094,1768.99451 Z" id="icon-featured-artist"></path>
        </g>
    </g>
</svg>