<?xml version="1.0" encoding="UTF-8"?>
<svg width="40px" height="30px" viewBox="0 0 40 30" version="1.1" xmlns="http://www.w3.org/2000/svg" xmlns:xlink="http://www.w3.org/1999/xlink">
    <!-- Generator: sketchtool 63.1 (101010) - https://sketch.com -->
    <title>A5372975-91FF-4F18-BAA0-584362E8F27A</title>
    <desc>Created with sketchtool.</desc>
    <g id="web" stroke="none" stroke-width="1" fill="none" fill-rule="evenodd">
        <g id="home-v2" transform="translate(-724.000000, -1089.000000)" stroke="#000000">
            <g id="icon-ready-to-hang" transform="translate(724.000000, 1089.000000)">
                <g id="Group-3">
                    <rect id="Rectangle" x="0.5" y="5.5" width="11" height="20" rx="1"></rect>
                    <rect id="Rectangle-Copy-14" x="28.5" y="5.5" width="11" height="20" rx="1"></rect>
                    <path d="M25,17.2217397 L25,28.5333333 C25,29.0672086 24.626904,29.5 24.1666667,29.5 L15.8333333,29.5 C15.373096,29.5 15,29.0672086 15,28.5333333 L15,20.2947001 M15,12.6635985 L15,1.46666667 C15,0.932791408 15.373096,0.5 15.8333333,0.5 L24.1666667,0.5 C24.626904,0.5 25,0.932791408 25,1.46666667 L25,8.24264775" id="Shape" stroke-linecap="round" stroke-linejoin="round"></path>
                    <polyline id="Path-10" stroke-linecap="round" stroke-linejoin="round" points="14.0359966 15.2947001 18.1684535 19.2947001 26.0359966 11.2947001"></polyline>
                </g>
            </g>
        </g>
    </g>
</svg>