<?xml version="1.0" encoding="UTF-8"?>
<svg width="17px" height="17px" viewBox="0 0 17 17" version="1.1" xmlns="http://www.w3.org/2000/svg" xmlns:xlink="http://www.w3.org/1999/xlink">
    <!-- Generator: sketchtool 63.1 (101010) - https://sketch.com -->
    <title>FCD54DE6-59D5-476C-B8BA-90E9907851A9</title>
    <desc>Created with sketchtool.</desc>
    <g id="web" stroke="none" stroke-width="1" fill="none" fill-rule="evenodd">
        <g id="tile-variations" transform="translate(-241.000000, -1628.000000)" fill="#FFFFFF">
            <path d="M250,1643.04395 L250,1645 L249,1645 L249,1643.04395 L250,1643.04395 Z M249.5,1628 L251.487694,1634.00231 L258,1633.97718 L252.715995,1637.66142 L254.753225,1643.64837 L249.5,1639.92317 L244.246775,1643.64837 L246.284005,1637.66142 L241,1633.97718 L247.512306,1634.00231 L249.5,1628 Z M243.363374,1637.83371 L243.721742,1638.74678 L241.46788,1639.59294 L241.109512,1638.67988 L243.363374,1637.83371 Z M255.712394,1637.83371 L257.966256,1638.67988 L257.607888,1639.59294 L255.354026,1638.74678 L255.712394,1637.83371 Z M244.694989,1629.08711 L246.114028,1630.99733 L245.305011,1631.57219 L243.885972,1629.66198 L244.694989,1629.08711 Z M254.720638,1629.08711 L255.529655,1629.66198 L254.110616,1631.57219 L253.301599,1630.99733 L254.720638,1629.08711 Z" id="icon-new-arrival"></path>
        </g>
    </g>
</svg>