<?xml version="1.0" encoding="UTF-8"?>
<svg width="23px" height="16px" viewBox="0 0 23 16" version="1.1" xmlns="http://www.w3.org/2000/svg" xmlns:xlink="http://www.w3.org/1999/xlink">
    <!-- Generator: sketchtool 63.1 (101010) - https://sketch.com -->
    <title>210E094D-1EDB-4D48-BE40-53537912B1AA</title>
    <desc>Created with sketchtool.</desc>
    <g id="web" stroke="none" stroke-width="1" fill="none" fill-rule="evenodd">
        <g id="home-v2" transform="translate(-1360.000000, -1872.000000)" fill="#FFFFFF" fill-rule="nonzero">
            <path d="M1383,1887.157 L1383,1888 L1360,1888 L1360,1887.157 L1383,1887.157 Z M1383,1885.487 L1360,1885.487 L1360,1884.65 L1383,1884.65 L1383,1885.487 Z M1383,1882.955 L1360,1882.955 L1360,1882.117 L1383,1882.117 L1383,1882.955 Z M1383,1872.845 L1371.92134,1872.84501 L1371.92134,1874.51998 L1383,1874.519 L1383,1875.359 L1371.92134,1875.35997 L1371.92134,1877.0525 L1383,1877.052 L1383,1877.889 L1371.92134,1877.88999 L1371.92134,1879.58502 L1383,1879.585 L1383,1880.422 L1360,1880.422 L1360,1879.58 L1371.07864,1879.58 L1371.07864,1872.84501 L1360,1872.845 L1360,1872 L1383,1872 L1383,1872.845 Z M1367.99777,1876.0011 L1368.02502,1876.01214 L1368.03826,1876.02303 L1368.03826,1876.02303 L1368.04868,1876.03685 L1368.36415,1876.55591 L1368.94512,1876.70696 C1368.98423,1876.71774 1369.00769,1876.75941 1368.9977,1876.80033 L1368.99049,1876.81802 L1368.99049,1876.81802 L1368.9793,1876.83329 L1368.606,1877.30291 L1368.64543,1877.91808 C1368.64622,1877.93113 1368.64379,1877.94411 1368.6384,1877.95591 C1368.62529,1877.9847 1368.59728,1878.00101 1368.56862,1877.99966 L1368.54028,1877.99224 L1367.99873,1877.76704 L1367.45193,1877.99498 C1367.41421,1878.00995 1367.37195,1877.99031 1367.35729,1877.95104 L1367.35567,1877.93456 L1367.35567,1877.93456 L1367.35729,1877.91808 L1367.39673,1877.30291 L1367.0208,1876.83054 C1366.99307,1876.80067 1366.99307,1876.7533 1367.0208,1876.72343 L1367.03435,1876.71342 L1367.03435,1876.71342 L1367.04972,1876.70696 L1367.62018,1876.55591 L1367.9225,1876.03685 C1367.93387,1876.01825 1367.95094,1876.00635 1367.96945,1876.00197 L1367.99777,1876.0011 Z M1362.01091,1876.0011 L1362.03817,1876.01212 L1362.05135,1876.02305 L1362.05135,1876.02305 L1362.06183,1876.03681 L1362.37466,1876.55522 L1362.94512,1876.70882 C1362.98423,1876.71959 1363.00769,1876.76121 1362.9977,1876.80208 L1362.99047,1876.81975 L1362.99047,1876.81975 L1362.9793,1876.835 L1362.606,1877.30403 L1362.64543,1877.91845 C1362.64622,1877.93148 1362.64379,1877.94444 1362.6384,1877.95623 C1362.62529,1877.98498 1362.59728,1878.00127 1362.56862,1877.99992 L1362.54028,1877.9925 L1362.00399,1877.76484 L1361.45719,1877.9925 C1361.4472,1877.99648 1361.43649,1877.9982 1361.42584,1877.99744 C1361.39543,1877.99533 1361.37056,1877.97421 1361.36117,1877.94593 L1361.35729,1877.9157 L1361.39673,1877.30129 L1361.0208,1876.82951 C1360.99307,1876.79968 1360.99307,1876.75237 1361.0208,1876.72254 L1361.03435,1876.71253 L1361.03435,1876.71253 L1361.04972,1876.70608 L1361.62018,1876.55522 L1361.93564,1876.03681 C1361.93591,1876.03633 1361.93623,1876.03585 1361.9365,1876.03537 C1361.94744,1876.01751 1361.9643,1876.00599 1361.9827,1876.00178 L1362.01091,1876.0011 Z M1365.00694,1876.0011 L1365.03409,1876.01212 L1365.04722,1876.02305 L1365.04722,1876.02305 L1365.05766,1876.03681 L1365.37188,1876.55522 L1365.94534,1876.70882 C1365.98429,1876.71959 1366.00766,1876.76121 1365.99771,1876.80208 L1365.99051,1876.81975 L1365.99051,1876.81975 L1365.97938,1876.835 L1365.60755,1877.30403 L1365.64683,1877.91845 C1365.64761,1877.93148 1365.64519,1877.94444 1365.63982,1877.95623 C1365.62676,1877.98498 1365.59886,1878.00127 1365.57032,1877.99992 L1365.54208,1877.9925 L1365.00005,1877.76484 L1364.45539,1877.9925 C1364.44544,1877.99648 1364.43477,1877.9982 1364.42417,1877.99744 C1364.39383,1877.99533 1364.36908,1877.97421 1364.35974,1877.94593 L1364.35589,1877.9157 L1364.39517,1877.30129 L1364.02072,1876.82951 C1363.99309,1876.79968 1363.99309,1876.75237 1364.02072,1876.72254 L1364.03421,1876.71253 L1364.03421,1876.71253 L1364.04952,1876.70608 L1364.61774,1876.55522 L1364.93197,1876.03681 C1364.93223,1876.03633 1364.93256,1876.03585 1364.93282,1876.03537 C1364.94372,1876.01751 1364.96051,1876.00599 1364.97884,1876.00178 L1365.00694,1876.0011 Z M1365.03914,1874.01327 L1365.05945,1874.03511 L1365.37306,1874.5546 L1365.9454,1874.69478 C1365.98428,1874.70557 1366.0076,1874.74728 1365.99774,1874.78823 L1365.99055,1874.80594 L1365.99055,1874.80594 L1365.97944,1874.82122 L1365.60834,1875.29123 L1365.64754,1875.90692 L1365.64754,1875.90733 L1365.64377,1875.93764 C1365.63451,1875.966 1365.60982,1875.98722 1365.57959,1875.98938 L1365.56129,1875.9918 L1365.56129,1875.9918 L1365.543,1875.98938 L1364.99679,1875.76674 L1364.45319,1875.99488 C1364.44326,1875.99886 1364.43261,1876.00058 1364.42203,1875.99983 C1364.39174,1875.99771 1364.36704,1875.97654 1364.35772,1875.94821 L1364.35388,1875.91792 L1364.39308,1875.30223 L1364.01674,1874.82946 C1364.00969,1874.82053 1364.00472,1874.81002 1364.00211,1874.79875 C1363.99491,1874.76777 1364.00667,1874.73661 1364.02956,1874.71873 L1364.05588,1874.70578 L1364.623,1874.5546 L1364.93661,1874.03511 C1364.94223,1874.02604 1364.94962,1874.01828 1364.95824,1874.01237 C1364.98367,1873.99505 1365.01554,1873.99644 1365.03914,1874.01327 Z M1368.00627,1874.0011 L1368.03357,1874.01214 L1368.04684,1874.02303 L1368.04684,1874.02303 L1368.05728,1874.03685 L1368.37337,1874.55591 L1368.94497,1874.69872 C1368.98416,1874.7095 1369.00766,1874.75117 1368.99772,1874.79209 L1368.99048,1874.80978 L1368.99048,1874.80978 L1368.97928,1874.82505 L1368.60524,1875.29467 L1368.64475,1875.90985 L1368.64475,1875.91026 L1368.64096,1875.94053 C1368.63162,1875.96887 1368.60674,1875.99007 1368.57626,1875.99224 L1368.55783,1875.99466 L1368.55783,1875.99466 L1368.53939,1875.99224 L1367.99676,1875.76704 L1367.44887,1875.99498 C1367.41107,1876.00995 1367.36873,1875.99031 1367.35404,1875.95104 L1367.35236,1875.93456 L1367.35236,1875.93456 L1367.35404,1875.91808 L1367.39355,1875.30291 L1367.01688,1874.83054 C1367.00976,1874.82162 1367.00476,1874.81111 1367.00213,1874.79985 C1366.99487,1874.7689 1367.00672,1874.73776 1367.0298,1874.7199 L1367.05632,1874.70696 L1367.62792,1874.55591 L1367.93084,1874.03685 C1367.93111,1874.03637 1367.93144,1874.03589 1367.9317,1874.03541 C1367.94266,1874.01753 1367.95956,1874.00599 1367.97799,1874.00179 L1368.00627,1874.0011 Z M1362.04448,1874.01327 L1362.06484,1874.03511 L1362.37666,1874.5546 L1362.94526,1874.69478 C1362.98424,1874.70557 1363.00762,1874.74728 1362.99773,1874.78823 L1362.99053,1874.80594 L1362.99053,1874.80594 L1362.97939,1874.82122 L1362.60731,1875.29123 L1362.64661,1875.90692 L1362.64661,1875.90733 L1362.64284,1875.93764 C1362.63355,1875.966 1362.6088,1875.98722 1362.57849,1875.98938 L1362.56014,1875.9918 L1362.56014,1875.9918 L1362.5418,1875.98938 L1362.00726,1875.76674 L1361.46224,1875.99488 C1361.45228,1875.99886 1361.4416,1876.00058 1361.43099,1875.99983 C1361.40068,1875.99771 1361.37589,1875.97654 1361.36653,1875.94821 L1361.36267,1875.91792 L1361.39149,1875.30223 L1361.01679,1874.82946 C1361.00971,1874.82053 1361.00473,1874.81002 1361.00211,1874.79875 C1360.99489,1874.76777 1361.00668,1874.73661 1361.02964,1874.71873 L1361.05603,1874.70578 L1361.62463,1874.5546 L1361.94169,1874.03511 C1361.94732,1874.02604 1361.95472,1874.01828 1361.96337,1874.01237 C1361.98887,1873.99505 1362.02082,1873.99644 1362.04448,1874.01327 Z" id="icon-us-flag"></path>
        </g>
    </g>
</svg>