<?xml version="1.0" encoding="UTF-8"?>
<svg width="9px" height="12px" viewBox="0 0 9 12" version="1.1" xmlns="http://www.w3.org/2000/svg" xmlns:xlink="http://www.w3.org/1999/xlink">
    <!-- Generator: sketchtool 63.1 (101010) - https://sketch.com -->
    <title>B9327D6C-1E07-4EFC-AE81-85D3BED58CE4</title>
    <desc>Created with sketchtool.</desc>
    <g id="web" stroke="none" stroke-width="1" fill="none" fill-rule="evenodd">
        <g id="cart1" transform="translate(-1394.000000, -552.000000)" fill="#000000" fill-rule="nonzero">
            <g id="logo-lock" transform="translate(1394.000000, 552.000000)">
                <path d="M8.23888486,4.70860973 L8.23888486,3.74999418 C8.23888486,1.68237786 6.56087682,0 4.49863093,0 C2.43638504,0 0.758376991,1.68237786 0.758376991,3.74999418 L0.758376991,4.70860973 C0.31336127,4.96876382 0.0103308464,5.44717548 0.0103308464,6 L0.0103308464,10.4999884 C0.0103308464,11.3272583 0.681301912,11.9999767 1.50642313,11.9999767 L7.49083872,11.9999767 C8.31595994,11.9999767 8.98693101,11.3272583 8.98693101,10.4999884 L8.98693101,6 C8.98693101,5.4471522 8.68390058,4.96874054 8.23888486,4.70860973 L8.23888486,4.70860973 Z M4.49863093,1.49998836 C5.73612704,1.49998836 6.74279258,2.50925215 6.74279258,3.74999418 L6.74279258,4.49998836 L2.25446928,4.49998836 L2.25446928,3.74999418 C2.25446928,2.50927542 3.26113482,1.49998836 4.49863093,1.49998836 Z M5.24667707,8.70802784 L5.24667707,9.74999418 L3.75058478,9.74999418 L3.75058478,8.70802784 C3.52256327,8.50212974 3.37656171,8.20687568 3.37656171,7.87498545 C3.37656171,7.25366013 3.87891943,6.74999418 4.49863093,6.74999418 C5.11834242,6.74999418 5.62070014,7.25366013 5.62070014,7.87498545 C5.62070014,8.20687568 5.47469859,8.50212974 5.24667707,8.70802784 L5.24667707,8.70802784 Z" id="Shape"></path>
            </g>
        </g>
    </g>
</svg>