<?xml version="1.0" encoding="UTF-8"?>
<svg width="18px" height="18px" viewBox="0 0 18 18" version="1.1" xmlns="http://www.w3.org/2000/svg" xmlns:xlink="http://www.w3.org/1999/xlink">
    <title>820C5674-9B9C-4733-B63C-E6B810AAC47D</title>
    <g id="web" stroke="none" stroke-width="1" fill="none" fill-rule="evenodd" opacity="0.200000003">
        <g id="home-v2" transform="translate(-1261.000000, -69.000000)" fill="#000000" fill-rule="nonzero">
            <g id="phone" transform="translate(1269.989288, 77.979874) rotate(43.000000) translate(-1269.989288, -77.979874) translate(1263.989288, 71.981097)">
                <path d="M10.5863874,11.9661455 C11.3658848,11.9661455 12,11.3321596 12,10.5528212 L12,8.66838885 C12,8.4654983 11.8702304,8.28559782 11.6778848,8.22165275 L8.85728796,7.27943657 C8.71922513,7.23298532 8.56831414,7.25412237 8.4468377,7.33417933 L7.24765445,8.13330428 C5.97760209,7.52786757 4.47059686,6.02113827 3.86500524,4.75134494 L4.66429319,3.55240625 C4.74480628,3.43139429 4.76506806,3.28004296 4.71904712,3.1420397 L3.77663874,0.322018083 C3.71271204,0.129743168 3.53277487,0 3.32984293,0 L1.41361257,0 C0.634115183,0 0,0.627358939 0,1.40669735 C0,6.8345535 5.15742408,11.9661455 10.5863874,11.9661455 Z" id="Path"></path>
            </g>
        </g>
    </g>
</svg>