<?xml version="1.0" encoding="UTF-8"?>
<svg width="94px" height="82px" viewBox="0 0 94 82" version="1.1" xmlns="http://www.w3.org/2000/svg" xmlns:xlink="http://www.w3.org/1999/xlink">
    <!-- Generator: sketchtool 63.1 (101010) - https://sketch.com -->
    <title>F1A4BA7F-6F4D-4B22-91CD-66EC35058561</title>
    <desc>Created with sketchtool.</desc>
    <g id="web" stroke="none" stroke-width="1" fill="none" fill-rule="evenodd" stroke-linecap="round" stroke-linejoin="round">
        <g id="contact1" transform="translate(-1168.000000, -476.000000)" fill-rule="nonzero" stroke="#000000" stroke-width="3">
            <g id="help-contact" transform="translate(1170.000000, 478.000000)">
                <path d="M8,4.518125e-13 L82,4.518125e-13 C86.418278,4.51000876e-13 90,3.581722 90,8 L90,57.5434783 C90,61.9617563 86.418278,65.5434783 82,65.5434783 L49.9212327,65.5434783 C47.8347484,65.5434783 45.7912948,66.1368924 44.0293514,67.2544667 L27.6174372,77.6642989 C26.2182974,78.5517524 24.3646472,78.1369486 23.4771937,76.7378088 C23.1724007,76.2572788 23.0105605,75.6999733 23.0105605,75.1309321 L23.0105605,68.5434783 C23.0105605,66.886624 21.6674147,65.5434783 20.0105605,65.5434783 L8,65.5434783 C3.581722,65.5434783 1.14910095e-12,61.9617563 0,57.5434783 L0,8 C-5.41083001e-16,3.581722 3.581722,4.52624125e-13 8,4.518125e-13 Z" id="Rectangle"></path>
                <path d="M1.55652267,4.96362095 L36.9803231,33.8119808 C42.2962753,39.3152578 48.0404331,39.3152578 54.2127964,33.8119808 C60.3851598,28.3087037 71.7953867,18.6925838 88.4434773,4.96362095" id="Path-8"></path>
                <line x1="54.2127964" y1="33.8119808" x2="86.6416113" y2="61.856372" id="Path-9"></line>
                <line x1="3.91304348" y1="33.8119808" x2="36.3418584" y2="61.856372" id="Path-9-Copy" transform="translate(20.127451, 47.834176) scale(-1, 1) translate(-20.127451, -47.834176) "></line>
            </g>
        </g>
    </g>
</svg>